<?xml version="1.0" encoding="utf-8"?>
<!-- Generator: Adobe Illustrator 24.1.3, SVG Export Plug-In . SVG Version: 6.00 Build 0)  -->
<svg version="1.1"
	 id="svg8" xmlns:cc="http://creativecommons.org/ns#" xmlns:dc="http://purl.org/dc/elements/1.1/" xmlns:inkscape="http://www.inkscape.org/namespaces/inkscape" xmlns:rdf="http://www.w3.org/1999/02/22-rdf-syntax-ns#" xmlns:sodipodi="http://sodipodi.sourceforge.net/DTD/sodipodi-0.dtd" xmlns:svg="http://www.w3.org/2000/svg"
	 xmlns="http://www.w3.org/2000/svg" xmlns:xlink="http://www.w3.org/1999/xlink" x="0px" y="0px" viewBox="0 0 1024 1024"
	 style="enable-background:new 0 0 1024 1024;" xml:space="preserve">
<style type="text/css">
	.st0{display:none;}
	.st1{display:inline;fill:#0000B6;}
	.st2{fill:#0000B6;}
	.st3{fill:#FFFF55;}
</style>
<sodipodi:namedview  bordercolor="#666666" borderopacity="1.0" id="base" inkscape:current-layer="layer1" inkscape:cx="393.16332" inkscape:cy="510.37745" inkscape:document-units="mm" inkscape:pagecheckerboard="true" inkscape:pageopacity="0.0" inkscape:pageshadow="2" inkscape:window-height="1035" inkscape:window-maximized="1" inkscape:window-width="1858" inkscape:window-x="62" inkscape:window-y="1" inkscape:zoom="0.49497475" pagecolor="#ffffff" showgrid="false" units="px">
	</sodipodi:namedview>
<g id="layer2" inkscape:groupmode="layer" inkscape:label="Full fill" class="st0">
	<rect id="rect4565" class="st1" width="1024" height="1024"/>
</g>
<rect class="st2" width="1024" height="1024"/>
<g id="layer1" transform="translate(0,-26.06665)" inkscape:groupmode="layer" inkscape:label="Paw">
	<path id="path58" inkscape:connector-curvature="0" class="st3" d="M278.3,655.3c-67.4,0-116.7-89.4-116.7-155.6
		c0-44.3,21.9-90.8,67.8-90.8c67.4,0,116.7,89.9,116.7,156C346.1,609.2,324.6,655.3,278.3,655.3L278.3,655.3z M754.6,821.4
		c0,57.9-43.8,67.1-86.8,67.1c-56.4,0-101.9-41.1-155.8-41.1c-56.4,0-104.4,40.6-165.5,40.6c-40.9,0-77.1-15.1-77.1-66.6
		c0-108.1,139.4-268.7,242.6-268.7S754.6,713.7,754.6,821.4L754.6,821.4z M411.4,456.4c-68.2,0-109.5-93.1-109.5-156.9
		c0-51.1,24.4-111.8,78.7-111.8c68.6,0,109.5,93.1,109.5,156.9C490.1,395.7,465.7,456.4,411.4,456.4z M533.9,344.6
		c0-63.9,40.8-156.9,109.5-156.9c54.3,0,78.8,60.7,78.8,111.8c0,63.9-41.3,156.9-109.5,156.9C558.3,456.4,533.9,395.7,533.9,344.6
		L533.9,344.6z M862.4,499.7c0,66.2-49.3,155.6-116.7,155.6c-46.3,0-67.8-46.1-67.8-90.3c0-66.2,49.3-156,116.7-156
		C840.5,409,862.4,455.5,862.4,499.7z"/>
</g>
</svg>
