<?xml version="1.0" encoding="UTF-8" standalone="no"?>
<!-- Created with Inkscape (http://www.inkscape.org/) -->

<svg
   xmlns:dc="http://purl.org/dc/elements/1.1/"
   xmlns:cc="http://creativecommons.org/ns#"
   xmlns:rdf="http://www.w3.org/1999/02/22-rdf-syntax-ns#"
   xmlns:svg="http://www.w3.org/2000/svg"
   xmlns="http://www.w3.org/2000/svg"
   xmlns:sodipodi="http://sodipodi.sourceforge.net/DTD/sodipodi-0.dtd"
   xmlns:inkscape="http://www.inkscape.org/namespaces/inkscape"
   width="1600"
   height="400"
   viewBox="0 0 846.66667 211.66667"
   version="1.1"
   id="svg8"
   inkscape:version="0.92.2 5c3e80d, 2017-08-06"
   sodipodi:docname="paw_banner.svg"
   inkscape:export-filename="/Users/demsar/Desktop/paw_banner.png"
   inkscape:export-xdpi="96.000008"
   inkscape:export-ydpi="96.000008">
  <defs
     id="defs2" />
  <sodipodi:namedview
     id="base"
     pagecolor="#ffffff"
     bordercolor="#666666"
     borderopacity="1.0"
     inkscape:pageopacity="0.0"
     inkscape:pageshadow="2"
     inkscape:zoom="0.64"
     inkscape:cx="956.35235"
     inkscape:cy="152.2087"
     inkscape:document-units="mm"
     inkscape:current-layer="layer2"
     showgrid="false"
     units="px"
     inkscape:pagecheckerboard="true"
     inkscape:window-width="1865"
     inkscape:window-height="1035"
     inkscape:window-x="78"
     inkscape:window-y="18"
     inkscape:window-maximized="0" />
  <metadata
     id="metadata5">
    <rdf:RDF>
      <cc:Work
         rdf:about="">
        <dc:format>image/svg+xml</dc:format>
        <dc:type
           rdf:resource="http://purl.org/dc/dcmitype/StillImage" />
        <dc:title></dc:title>
      </cc:Work>
    </rdf:RDF>
  </metadata>
  <g
     inkscape:groupmode="layer"
     id="layer2"
     inkscape:label="Full fill"
     style="display:inline"
     transform="translate(0,-330.2)">
    <rect
       style="fill:#0000b6;fill-opacity:1;stroke-width:0.41341147"
       id="rect4565"
       width="846.66669"
       height="211.66667"
       x="0"
       y="330.20001"
       inkscape:export-filename="/Users/demsar/Desktop/rect4565.png"
       inkscape:export-xdpi="96.000008"
       inkscape:export-ydpi="96.000008" />
  </g>
  <g
     inkscape:groupmode="layer"
     id="layer3"
     inkscape:label="Circle fill"
     style="display:none"
     transform="translate(0,-330.2)">
    <circle
       style="fill:#0000b6;fill-opacity:1;stroke-width:0.62960178"
       id="path4589"
       cx="270.93335"
       cy="270.93335"
       r="270.93335" />
  </g>
  <g
     inkscape:label="Paw"
     inkscape:groupmode="layer"
     id="layer1"
     transform="translate(0,-356.26665)">
    <path
       id="path58"
       d="m 639.54547,478.43282 c -12.85383,0 -22.25316,-17.05784 -22.25316,-29.6774 0,-8.44208 4.17749,-17.31923 12.934,-17.31923 12.85383,0 22.25316,17.14498 22.25316,29.76453 0,8.44209 -4.09706,17.2321 -12.934,17.2321 z m 90.86015,31.6793 c 0,11.05301 -8.35496,12.79352 -16.54935,12.79352 -10.76509,0 -19.44146,-7.83276 -29.72432,-7.83276 -10.7651,0 -19.92343,7.74563 -31.57207,7.74563 -7.79282,0 -14.70158,-2.87201 -14.70158,-12.70639 0,-20.62629 26.59147,-51.26123 46.27365,-51.26123 19.68219,0 46.27367,30.72206 46.27367,51.26123 z M 664.93174,440.4876 c -13.01466,0 -20.88738,-17.75428 -20.88738,-29.93849 0,-9.74755 4.65945,-21.32274 15.02273,-21.32274 13.09482,0 20.88739,17.75428 20.88739,29.93848 0,9.74755 -4.65946,21.32275 -15.02274,21.32275 z m 23.37769,-21.32275 c 0,-12.1842 7.79257,-29.93848 20.8874,-29.93848 10.36326,0 15.02298,11.57519 15.02298,21.32244 0,12.18421 -7.87298,29.93848 -20.88764,29.93848 -10.36329,2.1e-4 -15.02274,-11.57489 -15.02274,-21.32244 z m 62.66216,29.59057 c 0,12.61956 -9.39932,29.6774 -22.25316,29.6774 -8.83718,0 -12.934,-8.79001 -12.934,-17.2321 0,-12.61926 9.39908,-29.76453 22.25317,-29.76453 8.75652,0 12.93399,8.87715 12.93399,17.31923 z"
       inkscape:connector-curvature="0"
       style="fill:#ffff55;fill-opacity:1;stroke-width:0.27911943" />
    <path
       style="fill:#ffff55;fill-opacity:0.85279191;stroke-width:0.04423111"
       inkscape:connector-curvature="0"
       d="m 10.141559,397.13607 c 0.685175,-1.42836 4.812979,-1.99761 7.496102,-1.64604 1.794922,0.2352 3.459667,0.94672 2.992901,1.91978 -0.685175,1.42836 -4.831507,1.99519 -7.514628,1.64361 -1.794924,-0.2352 -3.4454286,-0.93536 -2.974375,-1.91735 z m -11.578839,9.2141 c -2.350049,-0.30793 -2.274747,-1.28486 -1.837945,-2.19545 0.573835,-1.19625 2.701701,-1.94217 3.249829,-3.08484 0.573835,-1.19625 -0.584826,-2.42975 0.03611,-3.72419 0.415397,-0.86596 1.3943055,-1.55367 3.4852535,-1.27967 4.3854819,0.57463 9.4815045,4.38304 8.4323445,6.5702 -1.049161,2.18714 -8.9986275,4.28617 -13.365588,3.71395 z m 18.293389,-5.33595 c 0.693748,-1.44624 4.888251,-1.82644 7.47881,-1.48699 2.072487,0.27155 4.285187,1.11181 3.732771,2.26342 -0.69802,1.45513 -4.888251,1.82644 -7.478808,1.48699 -2.072487,-0.27157 -4.285188,-1.11182 -3.732773,-2.26342 z m 3.287412,3.19184 c 2.590557,0.33945 5.95002,1.70002 5.252,3.15516 -0.552414,1.1516 -3.261874,1.34692 -5.334298,1.07537 -2.590559,-0.33945 -5.945734,-1.70895 -5.251986,-3.15518 0.552371,-1.15161 3.261797,-1.34691 5.334284,-1.07535 z m -9.631646,6.13885 c -2.6831216,-0.35158 -5.8088625,-1.8713 -5.1236875,-3.29965 0.471067,-0.98202 2.5583459,-1.19238 4.3532709,-0.95719 2.6830576,0.35157 5.8274006,1.87368 5.1422126,3.30208 -0.466767,0.97305 -2.576873,1.18995 -4.371796,0.95476 z"
       id="path104" />
    <path
       style="fill:#ffff55;fill-opacity:0.85279191;stroke-width:0.04825418"
       inkscape:connector-curvature="0"
       d="m 32.271698,417.1538 c -0.462188,-1.62387 3.139809,-3.14681 6.054638,-3.39501 1.949927,-0.16603 4.150555,0.18715 4.465414,1.2934 0.462189,1.62388 -3.159935,3.14852 -6.074762,3.39672 -1.949929,0.16603 -4.127538,-0.1787 -4.44529,-1.29511 z m -4.050116,12.10179 c -2.552993,0.21739 -3.255432,-0.80391 -3.550079,-1.83913 -0.387083,-1.36001 1.110128,-2.61018 0.740385,-3.90925 -0.387083,-1.36001 -2.505454,-2.36468 -2.924307,-3.83631 -0.280208,-0.98449 0.134741,-1.9138 2.406258,-2.1072 4.7642,-0.40566 12.796325,2.35125 13.504041,4.83779 0.707717,2.48654 -5.432221,6.45016 -10.176298,6.8541 z m 13.727411,-9.6409 c -0.467971,-1.64419 3.34978,-2.98796 6.164054,-3.2276 2.25146,-0.1917 5.092605,0.16931 5.465239,1.47854 0.470854,1.65432 -3.349778,2.98796 -6.164051,3.22759 -2.251461,0.19171 -5.092607,-0.16929 -5.465242,-1.47853 z m 5.765665,2.53405 c 2.814271,-0.23963 7.195297,0.39566 7.666158,2.05 0.372633,1.30923 -2.133423,2.12556 -4.384816,2.31726 -2.814273,0.23963 -7.198192,-0.40582 -7.666164,-2.05003 -0.372682,-1.30922 2.133358,-2.12552 4.384822,-2.31723 z m -4.581589,8.49834 c -2.91483,0.24819 -7.192773,-0.6038 -7.654962,-2.22767 -0.31776,-1.11645 1.565221,-1.80689 3.515151,-1.97292 2.914759,-0.24818 7.212889,0.60205 7.675087,2.22596 0.314859,1.10625 -1.585351,1.8086 -3.535276,1.97463 z"
       id="path106" />
    <path
       style="fill:#ffff55;fill-opacity:0.85279191;stroke-width:0.03918132"
       inkscape:connector-curvature="0"
       d="m 114.45052,391.09503 c -0.63761,-1.29106 2.0129,-2.70028 4.3187,-3.0444 1.54252,-0.23019 3.37174,-0.0527 3.80614,0.82685 0.6376,1.29106 -2.02882,2.70265 -4.33463,3.04677 -1.54251,0.2302 -3.35184,0.0584 -3.79021,-0.82922 z m -1.28121,9.99 c -2.01958,0.3014 -2.75205,-0.49033 -3.15854,-1.31339 -0.53399,-1.08127 0.46678,-2.16632 -0.0433,-3.19915 -0.534,-1.08126 -2.40357,-1.78992 -2.98139,-2.95995 -0.38658,-0.78271 -0.20449,-1.55496 1.59241,-1.82312 3.76876,-0.56245 10.68537,1.27308 11.66171,3.24999 0.97633,1.9769 -3.31806,5.48554 -7.0709,6.04562 z m 9.47376,-8.47486 c -0.6456,-1.30723 2.20789,-2.58209 4.43416,-2.91435 1.78103,-0.26579 4.12715,-0.11342 4.64121,0.92747 0.64958,1.31527 -2.20788,2.5821 -4.43415,2.91434 -1.78104,0.2658 -4.12715,0.11345 -4.64122,-0.92746 z m 5.05569,1.76665 c 2.22624,-0.33225 5.85681,-0.0337 6.50637,1.28159 0.51408,1.04089 -1.36975,1.82458 -3.15074,2.09037 -2.22628,0.33224 -5.86081,0.0256 -6.50641,-1.28162 -0.51412,-1.0409 1.36971,-1.82454 3.15078,-2.09034 z m -2.29835,7.10078 c -2.30581,0.34412 -5.88882,-0.13482 -6.52644,-1.42587 -0.43836,-0.88764 0.9645,-1.53882 2.50701,-1.76903 2.30577,-0.3441 5.90472,0.13242 6.54235,1.42352 0.43437,0.87952 -0.98041,1.54119 -2.52292,1.77138 z"
       id="path108"
       inkscape:transform-center-x="2.8938803"
       inkscape:transform-center-y="1.1362822" />
    <path
       style="fill:#ffff55;fill-opacity:0.85279191;stroke-width:0.02557615"
       inkscape:connector-curvature="0"
       d="m 152.32864,362.73294 c -0.88578,-0.71921 0.2526,-1.87324 1.57402,-2.33793 0.88398,-0.31087 2.10139,-0.40402 2.70482,0.086 0.88578,0.71919 -0.26171,1.87644 -1.58315,2.34113 -0.88398,0.31088 -2.08672,0.40532 -2.69569,-0.0891 z m 2.9442,6.25036 c -1.15736,0.407 -1.91537,0.004 -2.48007,-0.45488 -0.74185,-0.60234 -0.51956,-1.37621 -1.22819,-1.95157 -0.74185,-0.60233 -2.18402,-0.82954 -2.98675,-1.48131 -0.53702,-0.43602 -0.71239,-0.92833 0.31738,-1.29047 2.15978,-0.75953 7.20007,-0.39976 8.55641,0.70151 1.35635,1.10125 -0.0281,3.72039 -2.17878,4.47672 z m 2.77848,-6.22721 c -0.89686,-0.7282 0.41968,-1.82247 1.69549,-2.27113 1.02068,-0.35894 2.55381,-0.52446 3.26797,0.0554 0.90239,0.73269 -0.41968,1.82246 -1.69549,2.27113 -1.02067,0.35894 -2.55381,0.52446 -3.26797,-0.0554 z m 3.84373,0.52286 c 1.27581,-0.44866 3.67189,-0.66642 4.57428,0.0663 0.71415,0.57983 -0.17681,1.26679 -1.19743,1.62572 -1.27581,0.44866 -3.67741,0.66192 -4.57428,-0.0663 -0.71419,-0.57984 0.17673,-1.26678 1.19743,-1.62572 z m 1.21974,4.5957 c -1.3214,0.46468 -3.75527,0.56691 -4.64106,-0.1523 -0.60898,-0.49446 0.0291,-1.04736 0.91308,-1.35823 1.32137,-0.46468 3.76438,-0.57012 4.65018,0.14907 0.60343,0.48995 -0.0382,1.05058 -0.9222,1.36144 z"
       id="path110" />
    <path
       style="fill:#ffff55;fill-opacity:0.85279191;stroke-width:0.02541432"
       inkscape:connector-curvature="0"
       d="m 204.3485,364.89627 c -1.02696,-0.63826 0.0589,-1.73345 1.41774,-2.19838 0.90904,-0.31103 2.19869,-0.43065 2.89829,0.004 1.02696,0.63826 -0.0683,1.73666 -1.42712,2.20159 -0.90905,0.31103 -2.18289,0.43144 -2.88891,-0.007 z m 3.84805,5.67886 c -1.19018,0.40721 -2.04512,0.0565 -2.69982,-0.35042 -0.86007,-0.53455 -0.70984,-1.25396 -1.53139,-1.76455 -0.86007,-0.53455 -2.42582,-0.70394 -3.35649,-1.28236 -0.62261,-0.38695 -0.86533,-0.83583 0.19363,-1.19815 2.22104,-0.75993 7.64432,-0.5682 9.21683,0.40913 1.57251,0.97733 0.3889,3.42963 -1.82276,4.18635 z m 2.26612,-5.81629 c -1.0398,-0.64625 0.24298,-1.69129 1.55497,-2.1402 1.04961,-0.35912 2.66829,-0.55422 3.49627,-0.0396 1.04621,0.65022 -0.24298,1.69129 -1.55497,2.14018 -1.04962,0.35913 -2.6683,0.55422 -3.49627,0.0396 z m 4.16379,0.37523 c 1.31199,-0.4489 3.84636,-0.71606 4.89256,-0.0659 0.82798,0.51459 -0.0462,1.17243 -1.09573,1.53155 -1.31199,0.44889 -3.85278,0.71207 -4.89259,0.0658 -0.82799,-0.51458 0.0461,-1.1724 1.09576,-1.53153 z m 1.82009,4.20171 c -1.35888,0.46494 -3.94662,0.62668 -4.97358,-0.0116 -0.70605,-0.43881 -0.0868,-0.96609 0.82219,-1.27712 1.35884,-0.46493 3.95597,-0.62989 4.98295,0.008 0.6996,0.4348 0.0775,0.96929 -0.83156,1.28033 z"
       id="path112"
       inkscape:transform-center-x="0.8268229"
       inkscape:transform-center-y="0.95320422" />
    <path
       style="fill:#ffff55;fill-opacity:0.85279191;stroke-width:0.0834426"
       inkscape:connector-curvature="0"
       d="m 150.97251,575.10105 c -3.07386,2.37732 -10.03063,1.38285 -13.51442,-0.63898 -2.33054,-1.35254 -3.7822,-3.54738 -1.68817,-5.16691 3.07383,-2.37731 10.05468,-1.36887 13.53846,0.65288 2.33056,1.35253 3.77739,3.51854 1.66414,5.15293 z m 30.47363,-11.72917 c 3.05133,1.77081 1.53382,3.59493 -0.42577,5.11049 -2.57435,1.991 -6.81154,2.34079 -9.27057,4.2426 -2.57435,1.99101 -2.62617,4.92577 -5.41181,7.0802 -1.86356,1.44127 -4.30856,2.25892 -7.02347,0.68334 -5.69415,-3.30458 -7.79228,-13.13079 -3.08551,-16.771 4.70677,-3.64022 19.54702,-3.63627 25.21713,-0.34563 z m -34.87809,0.9547 c -3.1123,2.40706 -9.89624,1.01867 -13.25986,-0.93339 -2.69093,-1.56169 -4.77217,-4.27793 -2.2939,-6.19463 3.13147,-2.42188 9.89627,-1.01868 13.25988,0.93338 2.69095,1.56169 4.77217,4.27794 2.29388,6.19464 z m -0.29589,-7.7399 c -3.36362,-1.95204 -6.40139,-6.23773 -3.26993,-8.65962 2.47826,-1.91668 6.78806,-0.92401 9.47892,0.63761 3.3636,1.95206 6.38215,6.25262 3.26985,8.65968 -2.47821,1.91673 -6.78791,0.92402 -9.47884,-0.63767 z m 23.1538,-6.84858 c 3.48377,2.02181 5.94508,6.4931 2.87122,8.87041 -2.11331,1.63444 -5.51959,0.98388 -7.85016,-0.36866 -3.48369,-2.02177 -5.9692,-6.50701 -2.89529,-8.88438 2.09403,-1.61952 5.54368,-0.96992 7.87423,0.38263 z"
       id="path114"
       inkscape:transform-center-x="-2.6149541"
       inkscape:transform-center-y="4.9053324" />
    <path
       style="fill:#ffff55;fill-opacity:0.85279191;stroke-width:0.06304523"
       inkscape:connector-curvature="0"
       d="m 170.20525,519.17436 c -1.95577,1.98735 -7.28859,1.68667 -10.17583,0.38909 -1.93145,-0.86802 -3.32683,-2.42667 -1.99449,-3.78052 1.95576,-1.98733 7.30851,-1.67769 10.19574,-0.38012 1.93147,0.86804 3.31914,2.40529 1.97458,3.77155 z m 21.07265,-10.7906 c 2.52882,1.1365 1.65579,2.60723 0.40898,3.87417 -1.63796,1.66439 -4.75016,2.20048 -6.31474,3.79029 -1.63795,1.66441 -1.25932,3.87681 -3.0317,5.67781 -1.18571,1.20485 -2.89399,1.9777 -5.14401,0.96653 -4.71908,-2.12085 -7.68205,-9.38211 -4.68733,-12.42517 2.99472,-3.04308 14.06964,-3.99549 18.7688,-1.88363 z m -25.89152,2.96403 c -1.98024,2.0122 -7.24011,1.40388 -10.02774,0.15107 -2.23014,-1.00225 -4.16947,-2.91282 -2.59266,-4.5151 1.99242,-2.02459 7.24011,-1.40387 10.02773,-0.15109 2.23015,1.00226 4.16948,2.91285 2.59267,4.51512 z m -1.32142,-5.80688 c -2.78763,-1.25279 -5.66396,-4.28314 -3.67152,-6.30773 1.57681,-1.60228 4.93409,-1.13252 7.16417,-0.13031 2.78762,1.25281 5.65171,4.29557 3.67149,6.30779 -1.57679,1.60228 -4.93401,1.13251 -7.16414,0.13025 z m 16.30433,-6.64566 c 2.88724,1.29757 5.35976,4.50472 3.40399,6.49205 -1.34463,1.36633 -3.97904,1.09593 -5.91049,0.22791 -2.88718,-1.29754 -5.37973,-4.51365 -3.42393,-6.50102 1.33234,-1.35386 3.99897,-1.08698 5.93043,-0.21894 z"
       id="path116" />
    <path
       style="fill:#ffff55;fill-opacity:0.85279191;stroke-width:0.04311261"
       inkscape:connector-curvature="0"
       d="m 84.129948,484.22376 c -2.586169,0.53403 -5.88086,-0.80834 -6.919228,-2.09033 -0.694634,-0.8576 -0.584563,-1.93296 1.177232,-2.29677 2.586169,-0.534 5.888028,0.81721 6.926396,2.09919 0.694638,0.85762 0.593579,1.92079 -1.1844,2.28791 z m 20.887562,-0.55659 c 0.90947,1.12285 -0.62833,1.64678 -2.27702,1.98722 -2.16592,0.44723 -4.556096,0.012 -6.624979,0.43919 -2.16592,0.44724 -3.371234,1.61459 -5.714918,2.09854 -1.567904,0.32375 -3.194254,0.31902 -4.003451,-0.68004 -1.697179,-2.09537 1.132261,-6.31224 5.092282,-7.12995 3.960036,-0.8177 11.838076,1.19851 13.528086,3.28504 z m -18.902113,-4.35284 c -2.618526,0.54069 -5.66337,-0.93585 -6.665915,-2.1736 -0.802054,-0.99024 -0.817013,-2.3597 1.268062,-2.79025 2.63466,-0.54403 5.663372,0.93584 6.665917,2.1736 0.802055,0.99022 0.817016,2.3597 -1.268064,2.79025 z m 2.949072,-3.13736 c -1.002543,-1.23776 -0.895556,-3.36512 1.739092,-3.90915 2.085079,-0.43054 3.975034,0.55175 4.777072,1.54196 1.002543,1.23775 0.879372,3.36846 -1.739148,3.90916 -2.085069,0.43056 -3.974969,-0.55173 -4.777016,-1.54197 z m 15.042301,0.4027 c 1.03837,1.28199 0.55081,3.40536 -2.03537,3.93937 -1.77803,0.36714 -3.325563,-0.3556 -4.020194,-1.21321 -1.038348,-1.28195 -0.55803,-3.41419 2.028194,-3.94821 1.7618,-0.36381 3.33273,0.36444 4.02737,1.22205 z"
       id="path118" />
    <path
       style="fill:#ffff55;fill-opacity:0.85279191;stroke-width:0.03953074"
       inkscape:connector-curvature="0"
       d="m 115.05025,438.00887 c -2.47636,0.095 -4.52167,-1.60248 -4.69514,-2.9097 -0.11601,-0.87449 0.56675,-1.82492 2.25374,-1.88963 2.47635,-0.0949 4.52286,1.61152 4.69633,2.91873 0.11601,0.87449 -0.55245,1.81529 -2.25493,1.8806 z m 17.94013,2.61001 c 0.15193,1.14496 -1.43376,1.387 -3.01245,1.44757 -2.07396,0.0795 -3.85317,-0.66769 -5.83422,-0.59167 -2.07394,0.0795 -3.73188,0.94957 -5.97606,1.03567 -1.50132,0.0577 -2.8718,-0.18885 -3.00699,-1.20755 -0.28353,-2.13661 4.41836,-5.50652 8.21023,-5.65196 3.79188,-0.14549 9.33717,2.84037 9.61949,4.96794 z m -13.57094,-6.72824 c -2.50733,0.0963 -4.2681,-1.68473 -4.43559,-2.94685 -0.13398,-1.00971 0.60457,-2.24319 2.60111,-2.31977 2.52279,-0.0968 4.26812,1.68472 4.4356,2.94684 0.13398,1.0097 -0.60457,2.24319 -2.60112,2.31978 z m 4.21074,-2.38153 c -0.16748,-1.26212 1.08975,-3.15883 3.61254,-3.25558 1.99653,-0.0767 3.05337,1.08798 3.18735,2.09767 0.16749,1.26212 -1.10524,3.1594 -3.61258,3.25559 -1.99654,0.0767 -3.05331,-1.08797 -3.18731,-2.09768 z m 12.47894,2.60205 c 0.17347,1.30722 -1.40288,3.14365 -3.87924,3.23864 -1.70253,0.0653 -2.61264,-0.81493 -2.72868,-1.68941 -0.17346,-1.3072 1.40165,-3.15267 3.87806,-3.24767 1.68699,-0.0646 2.61382,0.82395 2.72986,1.69844 z"
       id="path120" />
    <path
       style="fill:#ffff55;fill-opacity:0.85279191;stroke-width:0.038408"
       inkscape:connector-curvature="0"
       d="m 64.615983,408.35853 c -2.396393,-0.23871 -3.546414,-2.08571 -3.100798,-3.32301 0.298103,-0.82772 1.390399,-1.6205 3.022904,-1.45789 2.396392,0.2387 3.543335,2.09425 3.097722,3.33154 -0.298104,0.82772 -1.372315,1.61346 -3.019828,1.44936 z m 15.820794,4.79333 c -0.390299,1.08371 -2.009411,1.09921 -3.537123,0.94703 -2.006983,-0.19991 -3.347969,-1.129 -5.265039,-1.31996 -2.006983,-0.19992 -3.987914,0.38945 -6.159622,0.17313 -1.452847,-0.14472 -2.639464,-0.55461 -2.292196,-1.51883 0.728343,-2.02233 6.767669,-4.53216 10.437097,-4.16665 3.669429,0.36551 7.54215,3.8715 6.816883,5.88528 z m -9.748028,-8.04229 c -2.426372,-0.24168 -3.267184,-2.12862 -2.83694,-3.32324 0.344197,-0.9557 1.621615,-2.00408 3.553682,-1.81163 2.441317,0.24318 3.267197,2.12863 2.836956,3.32324 -0.344201,0.95571 -1.62162,2.00408 -3.553698,1.81163 z m 5.111337,-1.65648 c 0.43024,-1.19461 2.509978,-2.79064 4.951295,-2.54746 1.932067,0.19245 2.39206,1.41389 2.047872,2.36956 -0.430242,1.19462 -2.524964,2.78916 -4.951335,2.54747 -1.932087,-0.19243 -2.392033,-1.41386 -2.047832,-2.36957 z m 10.637488,4.06491 c -0.445615,1.2373 -2.80031,2.7352 -5.196702,2.4965 -1.647552,-0.16411 -2.10095,-1.10201 -1.802847,-1.92973 0.445605,-1.23727 2.803335,-2.74375 5.199778,-2.50504 1.632518,0.16261 2.097874,1.11055 1.799771,1.93827 z"
       id="path124" />
    <path
       style="fill:#ffff55;fill-opacity:0.85279191;stroke-width:0.02802499"
       inkscape:connector-curvature="0"
       d="m 85.297751,369.08028 c -1.96198,0 -3.39668,-1.12661 -3.39668,-1.96008 0,-0.55757 0.63764,-1.14387 1.97422,-1.14387 1.96198,0 3.39668,1.13236 3.39668,1.96583 0,0.55757 -0.62537,1.13812 -1.97422,1.13812 z m 13.86871,2.0923 c 0,0.73001 -1.27528,0.84496 -2.52606,0.84496 -1.64316,0 -2.9675,-0.51732 -4.53706,-0.51732 -1.64316,0 -3.04107,0.51156 -4.8191,0.51156 -1.18948,0 -2.24402,-0.18968 -2.24402,-0.8392 0,-1.36229 4.05887,-3.38562 7.06312,-3.38562 3.00425,0 7.06312,2.02908 7.06312,3.38562 z m -9.9938,-4.59844 c -1.98653,0 -3.18821,-1.1726 -3.18821,-1.97732 0,-0.64379 0.71121,-1.40829 2.29304,-1.40829 1.99877,0 3.18821,1.1726 3.18821,1.97732 0,0.64379 -0.71121,1.40829 -2.29304,1.40829 z m 3.56832,-1.40829 c 0,-0.80472 1.18944,-1.97732 3.18821,-1.97732 1.58183,0 2.29308,0.7645 2.29308,1.40826 0,0.80472 -1.20171,1.97733 -3.18825,1.97733 -1.58183,1e-5 -2.29304,-0.76448 -2.29304,-1.40827 z m 9.564629,1.95435 c 0,0.83347 -1.43469,1.96008 -3.396679,1.96008 -1.34889,0 -1.97422,-0.58055 -1.97422,-1.13812 0,-0.83345 1.43466,-1.96583 3.396679,-1.96583 1.33658,0 1.97422,0.5863 1.97422,1.14387 z"
       id="path126" />
    <path
       style="fill:#ffff55;fill-opacity:0.85279191;stroke-width:0.02560196"
       inkscape:connector-curvature="0"
       d="m 291.0221,356.54061 c 1.04504,-0.65272 3.49336,-0.41673 4.7393,0.11096 0.8335,0.35302 1.37032,0.93635 0.6584,1.38101 -1.04503,0.65272 -3.50195,0.41309 -4.7479,-0.1146 -0.83349,-0.35302 -1.36826,-0.92862 -0.6498,-1.37737 z m -10.5148,3.28922 c -1.09127,-0.46218 -0.58384,-0.95924 0.0824,-1.37535 0.87523,-0.54666 2.35396,-0.65972 3.18997,-1.18189 0.87522,-0.54665 0.85508,-1.33561 1.80213,-1.92713 0.63356,-0.39571 1.47881,-0.62645 2.44977,-0.21522 2.03645,0.86251 2.89915,3.49386 1.29896,4.49333 -1.60019,0.99946 -6.79534,1.06513 -8.8232,0.20626 z m 12.19724,-0.41338 c 1.05811,-0.66089 3.45107,-0.31826 4.65404,0.19123 0.96238,0.4076 1.7264,1.12823 0.88384,1.65449 -1.06462,0.66496 -3.45107,0.31826 -4.65403,-0.19123 -0.96239,-0.40761 -1.7264,-1.12824 -0.88385,-1.65449 z m 0.20458,2.07875 c 1.20296,0.5095 2.32231,1.64761 1.25769,2.31257 -0.84255,0.52626 -2.36423,0.27885 -3.32659,-0.12874 -1.20296,-0.50948 -2.31577,-1.65169 -1.25766,-2.31259 0.84253,-0.52625 2.36417,-0.27884 3.32656,0.12876 z m -8.01604,1.94466 c -1.24594,-0.5277 -2.16591,-1.71828 -1.12087,-2.371 0.71848,-0.44877 1.9194,-0.28924 2.7529,0.0639 1.24591,0.52768 2.17453,1.72191 1.12947,2.37465 -0.71192,0.44465 -1.928,0.28558 -2.7615,-0.0675 z"
       id="path128" />
    <path
       style="fill:#ffff55;fill-opacity:0.85279191;stroke-width:0.02564169"
       inkscape:connector-curvature="0"
       d="m 335.43075,358.74204 c 1.41959,-0.27552 3.03591,0.71424 3.46371,1.59555 0.28617,0.58954 0.12573,1.29903 -0.84136,1.48674 -1.4196,0.27552 -3.03888,-0.72032 -3.46667,-1.60162 -0.28617,-0.58956 -0.13165,-1.29125 0.84432,-1.48067 z m -11.10867,-0.26472 c -0.37469,-0.77189 0.48905,-1.07255 1.39405,-1.24819 1.18892,-0.23075 2.41268,0.13026 3.54833,-0.0902 1.18892,-0.23076 1.93782,-0.96799 3.22431,-1.21769 0.86066,-0.16704 1.72104,-0.11455 2.05441,0.57223 0.69921,1.44045 -1.19911,4.14987 -3.37285,4.57175 -2.17373,0.42191 -6.15199,-1.15358 -6.84825,-2.58796 z m 9.59126,3.45881 c 1.43737,-0.27897 2.90869,0.79216 3.32173,1.64305 0.33043,0.68074 0.20822,1.58896 -0.93632,1.81111 -1.44623,0.28069 -2.9087,-0.79215 -3.32173,-1.64304 -0.33043,-0.68073 -0.20822,-1.58899 0.93632,-1.81112 z m -1.85905,1.9902 c 0.41303,0.85089 0.15425,2.25782 -1.29197,2.53851 -1.14454,0.22213 -2.05155,-0.48633 -2.38197,-1.16705 -0.41303,-0.85089 -0.14538,-2.25953 1.29198,-2.53851 1.14454,-0.22215 2.05153,0.48632 2.38196,1.16705 z m -7.92362,-0.72329 c -0.42779,-0.88129 0.032,-2.27403 1.45164,-2.54955 0.976,-0.18942 1.72644,0.33662 2.01261,0.92617 0.42779,0.88128 -0.0291,2.28011 -1.44869,2.55564 -0.96709,0.1877 -1.72938,-0.3427 -2.01556,-0.93226 z"
       id="path130" />
    <path
       style="fill:#ffff55;fill-opacity:0.85279191;stroke-width:0.04224956"
       inkscape:connector-curvature="0"
       d="m 303.08968,417.79404 c 1.92275,0.92991 1.51388,3.34492 0.17121,4.62851 -0.89819,0.85867 -2.46756,1.45938 -3.77741,0.82588 -1.92273,-0.92991 -1.50459,-3.3538 -0.16194,-4.63738 0.8982,-0.85868 2.44628,-1.45632 3.76814,-0.81701 z m -10.2208,-9.79557 c 1.17598,-1.12424 2.61095,-0.69683 3.8367,-0.104 1.61031,0.77881 2.07479,2.20321 3.61296,2.94713 1.6103,0.77881 3.80435,0.65353 5.5468,1.49626 1.1657,0.56378 1.89358,1.35572 0.84725,2.35601 -2.19454,2.09798 -9.43162,3.2902 -12.37579,1.86627 -2.94417,-1.42392 -3.65319,-6.47256 -1.46792,-8.56167 z m 2.38622,11.81852 c 1.94679,0.94155 1.23548,3.31698 -0.0609,4.55627 -1.03709,0.99146 -2.96563,1.83172 -4.51582,1.08198 -1.95878,-0.94735 -1.23547,-3.31696 0.0609,-4.55626 1.03709,-0.99146 2.96562,-1.83172 4.51581,-1.08199 z m -5.76558,0.47754 c -1.29634,1.23931 -4.35097,2.4814 -6.30976,1.53405 -1.55018,-0.74974 -1.01567,-2.26422 0.0214,-3.25564 1.29634,-1.2393 4.363,-2.47557 6.3098,-1.53402 1.55021,0.74972 1.01567,2.26416 -0.0214,3.25561 z m -6.22504,-7.54309 c 1.34266,-1.28359 4.56352,-2.3386 6.48626,-1.40868 1.32191,0.63933 0.99953,1.82978 0.10133,2.68846 -1.34263,1.28355 -4.57276,2.34747 -6.49554,1.41754 -1.30985,-0.6335 -0.99024,-1.83865 -0.092,-2.69732 z"
       id="path132" />
    <path
       style="fill:#ffff55;fill-opacity:0.85279191;stroke-width:0.0449748"
       inkscape:connector-curvature="0"
       d="m 235.73574,416.23096 c 2.4341,0.66742 2.73378,3.08831 1.63867,4.51822 -0.7326,0.95658 -2.29401,1.74554 -3.95222,1.29085 -2.4341,-0.66743 -2.72621,-3.09818 -1.63111,-4.52811 0.73259,-0.95657 2.27122,-1.73982 3.94466,-1.28096 z m -14.4569,-8.30748 c 0.95915,-1.25241 2.69235,-1.0158 4.24411,-0.59031 2.03855,0.55898 3.00188,1.89702 4.94911,2.43095 2.03857,0.55898 4.44501,0.15687 6.65088,0.76171 1.47572,0.40465 2.53479,1.08882 1.68138,2.20314 -1.78992,2.33717 -9.48395,4.42767 -13.21111,3.40567 -3.72718,-1.02199 -6.09673,-5.88387 -4.31437,-8.21116 z m 6.35674,11.28887 c 2.46455,0.67578 2.4147,3.09631 1.35737,4.4769 -0.84587,1.1045 -2.73269,2.17414 -4.69516,1.63603 -2.47974,-0.67995 -2.41473,-3.09631 -1.3574,-4.47689 0.84588,-1.1045 2.73271,-2.17415 4.69519,-1.63604 z m -6.27734,1.20221 c -1.05732,1.38059 -4.07367,2.98769 -6.55341,2.30774 -1.96247,-0.5381 -1.8404,-2.09163 -0.99456,-3.1961 1.05734,-1.38059 4.08891,-2.98353 6.55346,-2.30774 1.9625,0.53808 1.84038,2.09161 0.99451,3.1961 z m -9.29836,-6.60662 c 1.0951,-1.42993 4.35528,-2.8747 6.78937,-2.20727 1.67348,0.45887 1.68652,1.6676 0.95392,2.62416 -1.09508,1.4299 -4.3628,2.88458 -6.79695,2.21713 -1.65821,-0.45467 -1.67893,-1.67746 -0.94634,-2.63402 z"
       id="path134" />
    <path
       style="fill:#ffff55;fill-opacity:0.85279191;stroke-width:0.062999"
       inkscape:connector-curvature="0"
       d="m 223.63865,477.04236 c 2.92157,-1.25404 7.32021,0.68109 8.99385,2.79115 1.1196,1.41156 1.3474,3.30342 -0.64289,4.15773 -2.92158,1.25404 -7.33178,-0.69568 -9.00541,-2.80572 -1.11961,-1.41156 -1.35412,-3.28101 0.65445,-4.14316 z m -24.8532,3.56754 c -1.46587,-1.84812 0.20232,-2.95426 2.06484,-3.75373 2.44683,-1.05026 5.45769,-0.58706 7.79492,-1.59028 2.44681,-1.05026 3.5012,-3.23888 6.14885,-4.37533 1.77124,-0.76029 3.72245,-0.95411 5.0267,0.69024 2.7355,3.44882 0.75433,11.16545 -3.71928,13.08569 -4.47361,1.92022 -14.59208,-0.62235 -17.31602,-4.0566 z m 24.11546,5.25382 c 2.95813,-1.26973 7.10215,0.9308 8.71805,2.96805 1.29274,1.62985 1.7688,4.01987 -0.5867,5.03093 -2.97635,1.27754 -7.10214,-0.9308 -8.71804,-2.96806 -1.29273,-1.62984 -1.76881,-4.01986 0.58669,-5.03092 z m -2.48571,5.84605 c 1.61589,2.03726 2.19931,5.76612 -0.77705,7.04367 -2.35549,1.01107 -4.94973,-0.46976 -6.24243,-2.09955 -1.61589,-2.03725 -2.18103,-5.77397 0.7771,-7.0437 2.35548,-1.01111 4.94964,0.46974 6.24238,2.09958 z m -18.16699,1.16574 c -1.67364,-2.11006 -1.79948,-5.87923 1.1221,-7.13328 2.00862,-0.86217 4.10554,0.20788 5.22515,1.61944 1.67359,2.11 1.81109,5.89376 -1.11055,7.14783 -1.99028,0.85431 -4.11709,-0.22243 -5.2367,-1.63399 z"
       id="path136" />
    <path
       style="fill:#ffff55;fill-opacity:0.85279191;stroke-width:0.0743753"
       inkscape:connector-curvature="0"
       d="m 309.98507,479.72153 c 3.05474,-1.90675 8.88907,-0.45214 11.55281,1.65552 1.78196,1.40994 2.66297,3.51224 0.58197,4.81119 -3.05473,1.90676 -8.90748,0.4376 -11.57122,-1.67006 -1.78195,-1.40995 -2.66367,-3.48576 -0.56356,-4.79665 z m -28.27995,8.18737 c -2.33307,-1.84602 -0.71489,-3.37607 1.23252,-4.59164 2.55834,-1.5969 6.27365,-1.57578 8.71738,-3.10114 2.55835,-1.59691 3.09989,-4.2491 5.86821,-5.97708 1.85197,-1.15599 4.10008,-1.70116 6.17591,-0.0588 4.35382,3.4449 4.50074,12.50597 -0.17676,15.42565 -4.6775,2.91968 -17.48183,1.73325 -21.81726,-1.69711 z m 30.25635,1.91586 c 3.09295,-1.93061 8.71149,-0.13324 11.28334,1.90171 2.05752,1.62797 3.39349,4.2524 0.93063,5.78968 -3.112,1.94251 -8.7115,0.13324 -11.28335,-1.90169 -2.05751,-1.62799 -3.39348,-4.25241 -0.93062,-5.7897 z m -1.05494,7.02907 c 2.57184,2.03494 4.4675,6.15612 1.35549,8.09862 -2.46284,1.53729 -6.01352,0.29528 -8.07097,-1.33263 -2.57185,-2.03495 -4.4484,-6.16805 -1.35545,-8.09866 2.46282,-1.53733 6.01342,-0.29531 8.07093,1.33267 z m -21.13775,4.35331 c -2.66374,-2.10766 -4.03056,-6.35087 -0.97582,-8.25762 2.10017,-1.3109 4.92919,-0.45057 6.71114,0.95938 2.66369,2.10759 4.04901,6.36538 0.99421,8.27217 -2.081,1.29894 -4.94757,0.43602 -6.72953,-0.97393 z"
       id="path138" />
    <path
       style="fill:#ffff55;fill-opacity:0.85279191;stroke-width:0.08685439"
       inkscape:connector-curvature="0"
       d="m 355.79936,530.14883 c -0.31161,-3.49251 5.54297,-6.00615 10.04282,-5.97637 3.01025,0.0199 6.27693,1.17593 6.48921,3.55516 0.31162,3.49252 -5.57406,6.00596 -10.07388,5.97617 -3.01027,-0.0199 -6.24393,-1.15388 -6.45815,-3.55496 z m -9.09344,24.61285 c -3.94127,-0.0261 -4.76445,-2.30031 -4.9631,-4.52682 -0.26096,-2.92497 2.32168,-5.26395 2.07239,-8.0579 -0.26098,-2.92498 -3.24489,-5.43169 -3.52728,-8.59674 -0.18892,-2.11738 0.66768,-3.98778 4.1744,-3.96458 7.35487,0.0487 18.92323,7.34614 19.40039,12.694 0.47715,5.34785 -9.83301,12.5005 -17.1568,12.45204 z m 23.2393,-17.62561 c -0.31551,-3.53621 5.82442,-5.6334 10.16902,-5.60465 3.47576,0.023 7.71617,1.31634 7.9674,4.13214 0.31747,3.558 -5.82441,5.63342 -10.16904,5.60467 -3.47574,-0.023 -7.71616,-1.31634 -7.96738,-4.13216 z m 8.16994,6.40228 c 4.34461,0.0288 10.86431,2.18797 11.18176,5.74597 0.25124,2.8158 -3.76325,4.05457 -7.23893,4.03156 -4.34459,-0.0287 -10.86623,-2.2098 -11.18175,-5.74601 -0.25129,-2.81582 3.76316,-4.05452 7.23892,-4.03152 z m -9.03224,16.9561 c -4.49985,-0.0298 -10.81017,-2.62391 -11.12178,-6.11643 -0.21424,-2.40117 2.82077,-3.49356 5.83104,-3.47364 4.49972,0.0298 10.84122,2.62407 11.15285,6.11665 0.21228,2.37924 -2.85185,3.49333 -5.86211,3.47342 z"
       id="path140" />
    <path
       style="fill:#ffff55;fill-opacity:0.85279191;stroke-width:0.07394749"
       inkscape:connector-curvature="0"
       d="m 407.73053,462.15504 c -1.75638,-2.83366 2.0111,-5.5174 5.74854,-5.96988 2.50051,-0.30233 5.70007,0.29995 6.89657,2.23034 1.7564,2.83366 -2.0369,5.52052 -5.77431,5.97299 -2.50055,0.30234 -5.66329,-0.28532 -6.8708,-2.23345 z m 3.03325,21.16622 c -3.2735,0.39628 -4.93059,-1.38315 -6.05028,-3.18961 -1.47096,-2.37319 -0.33678,-4.56678 -1.74185,-6.83365 -1.47099,-2.3732 -5.01636,-4.11445 -6.60806,-6.68243 -1.06483,-1.71793 -1.15826,-3.34397 1.75427,-3.69659 6.1087,-0.73954 18.81505,4.02414 21.50449,8.36313 2.68942,4.33897 -2.7757,11.3027 -8.85857,12.03915 z m 11.67345,-16.93032 c -1.77835,-2.86911 2.404,-5.24126 6.01248,-5.67813 2.88702,-0.34931 6.95163,0.26264 8.3677,2.54724 1.78931,2.88679 -2.404,5.24128 -6.01247,5.67815 -2.88703,0.34931 -6.95162,-0.26265 -8.36771,-2.54726 z m 9.50936,4.38912 c 3.60848,-0.43684 9.93137,0.64442 11.72069,3.53121 1.41607,2.28461 -1.37533,3.72688 -4.26208,4.07638 -3.60849,0.43685 -9.94236,-0.66214 -11.72072,-3.53125 -1.41614,-2.2846 1.37526,-3.72683 4.26211,-4.07634 z m -0.20121,14.87503 c -3.73743,0.45245 -10.07363,-1.00799 -11.83001,-3.84166 -1.20751,-1.94817 0.83592,-3.1665 3.33612,-3.4692 3.73736,-0.45244 10.09938,1.00482 11.85582,3.83854 1.1965,1.93039 -0.86174,3.16962 -3.36193,3.47232 z"
       id="path142" />
    <path
       style="fill:#ffff55;fill-opacity:0.85279191;stroke-width:0.0626219"
       inkscape:connector-curvature="0"
       d="m 489.78496,431.52689 c -3.88742,-0.95971 -4.88859,-4.04589 -3.5262,-5.80986 0.91138,-1.18006 3.13313,-2.10902 5.78142,-1.45522 3.88743,0.95971 4.87917,4.05805 3.51678,5.82205 -0.91136,1.18006 -3.09942,2.10284 -5.772,1.44303 z m 24.05913,11.21214 c -1.19325,1.54502 -3.90799,1.16449 -6.38624,0.55266 -3.25573,-0.80375 -5.03415,-2.54644 -8.14403,-3.31419 -3.25573,-0.80376 -6.8617,-0.40485 -10.38465,-1.27459 -2.35681,-0.58184 -4.13619,-1.49911 -3.0745,-2.87379 2.22678,-2.88319 13.57621,-5.17998 19.52875,-3.71046 5.95254,1.46955 10.67802,7.74937 8.46067,10.62037 z m -12.285,-14.62077 c -3.93607,-0.97172 -4.40033,-4.04126 -3.08495,-5.74438 1.05233,-1.36253 3.71113,-2.63265 6.84533,-1.85889 3.96031,0.9777 4.40033,4.04125 3.08495,5.74438 -1.05231,1.36253 -3.71113,2.63265 -6.84533,1.85889 z m 9.37221,-1.235 c 1.31538,-1.70312 5.58883,-3.60303 9.54915,-2.62532 3.13419,0.77376 3.29383,2.73968 2.24153,4.10215 -1.31538,1.70314 -5.61315,3.59704 -9.54921,2.62532 -3.13423,-0.77373 -3.29379,-2.73961 -2.24147,-4.10215 z m 15.75662,8.81482 c -1.36237,1.76399 -6.04659,3.44658 -9.93401,2.48686 -2.67268,-0.65982 -2.96273,-2.19437 -2.05132,-3.37443 1.36233,-1.76395 6.05588,-3.45879 9.9434,-2.49905 2.64825,0.65379 2.95333,2.20658 2.04193,3.38662 z"
       id="path146" />
    <path
       id="path150"
       d="m 425.49841,378.72736 c -3.04818,-0.38018 -4.36116,-2.08801 -3.68348,-3.14579 0.45332,-0.70763 1.92068,-1.32816 3.99724,-1.06916 3.04818,0.38018 4.35646,2.09531 3.67878,3.1531 -0.45331,0.70763 -1.89692,1.32324 -3.99254,1.06185 z m 19.84556,5.34284 c -0.59355,0.92648 -2.66833,0.82525 -4.61156,0.58288 -2.55285,-0.31841 -4.18977,-1.23159 -6.62825,-1.53573 -2.55286,-0.3184 -5.14061,0.0599 -7.90301,-0.28458 -1.84801,-0.23049 -3.33213,-0.67557 -2.80402,-1.4999 1.10763,-1.72893 9.05868,-3.51027 13.72614,-2.92814 4.66746,0.58216 9.32365,3.94385 8.2207,5.66547 z m -11.78776,-7.77259 c -3.08633,-0.38494 -3.99987,-2.10599 -3.34557,-3.12729 0.52345,-0.81704 2.24997,-1.64948 4.70754,-1.34295 3.10534,0.38731 3.99987,2.10598 3.34558,3.12728 -0.52344,0.81704 -2.24998,1.64949 -4.70755,1.34296 z m 6.68893,-1.09579 c 0.65429,-1.0213 3.45564,-2.27899 6.56099,-1.89168 2.45755,0.30652 2.94098,1.41459 2.41756,2.23161 -0.65429,1.0213 -3.47472,2.27662 -6.56104,1.89168 -2.45758,-0.3065 -2.94095,-1.41456 -2.41751,-2.23161 z m 13.27081,4.33372 c -0.67767,1.05779 -3.82265,2.20959 -6.87085,1.8294 -2.09566,-0.26138 -2.59515,-1.11934 -2.1418,-1.82696 0.67765,-1.05777 3.82726,-2.21691 6.87551,-1.83672 2.07652,0.259 2.5905,1.12666 2.13714,1.83428 z"
       inkscape:connector-curvature="0"
       style="fill:#ffff55;fill-opacity:0.85279191;stroke-width:0.04089444" />
    <path
       style="fill:#ffff55;fill-opacity:0.85279191;stroke-width:0.04169117"
       inkscape:connector-curvature="0"
       d="m 507.94107,363.34531 c -2.62932,-0.84429 -2.50769,-2.6657 -0.99528,-3.55643 1.01174,-0.5959 2.93015,-0.9481 4.72137,-0.37293 2.62932,0.84428 2.49724,2.67183 0.98482,3.56258 -1.01174,0.5959 -2.90327,0.94723 -4.71091,0.36678 z m 14.78927,8.20408 c -1.32466,0.78018 -3.24232,0.35425 -4.91852,-0.18399 -2.20206,-0.70708 -3.03813,-1.82985 -5.14154,-2.50526 -2.20206,-0.70709 -5.00373,-0.76191 -7.38652,-1.52704 -1.59406,-0.51187 -2.66309,-1.16836 -1.48447,-1.86253 2.47199,-1.45591 11.5829,-1.87164 15.609,-0.57887 4.02608,1.2928 5.78359,5.20794 3.32205,6.65769 z m -5.04879,-9.21499 c -2.66222,-0.85484 -2.14483,-2.62513 -0.68459,-3.48515 1.16819,-0.68802 3.50855,-1.19901 5.62842,-0.51832 2.67862,0.86012 2.14485,2.62514 0.68461,3.48515 -1.1682,0.68804 -3.50858,1.19903 -5.62844,0.51832 z m 7.33753,0.0305 c 1.46021,-0.86001 5.18202,-1.60135 7.86064,-0.74123 2.11986,0.68069 1.68578,1.80379 0.51762,2.4918 -1.46024,0.86001 -5.19849,1.59607 -7.86069,0.74123 -2.11991,-0.68068 -1.68579,-1.80376 -0.51757,-2.4918 z m 9.27155,6.20452 c -1.51241,0.89075 -5.47942,1.4774 -8.10874,0.63311 -1.8077,-0.58045 -1.59227,-1.46998 -0.5805,-2.06587 1.51237,-0.89072 5.48979,-1.48356 8.11918,-0.63926 1.79117,0.57516 1.58182,1.47615 0.57006,2.07202 z"
       id="path152" />
  </g>
</svg>
